<svg xmlns="http://www.w3.org/2000/svg" viewBox="0 0 1200 900" preserveAspectRatio="xMidYMid slice">
  <defs>
    <linearGradient id="sky-city" x1="0" y1="0" x2="0" y2="1">
      <stop offset="0" stop-color="#1e3a8a"/>
      <stop offset="0.5" stop-color="#3b82f6"/>
      <stop offset="1" stop-color="#93c5fd"/>
    </linearGradient>
  </defs>
  <rect width="1200" height="900" fill="url(#sky-city)"/>
  
  <g fill="#0f172a" opacity="0.85">
    <rect x="60" y="380" width="150" height="520"/><rect x="240" y="300" width="120" height="600"/>
    <rect x="390" y="440" width="170" height="460"/><rect x="590" y="250" width="140" height="650"/>
    <rect x="760" y="400" width="120" height="500"/><rect x="910" y="330" width="180" height="570"/>
  </g>
  <g fill="#fde68a" opacity="0.75">
    <rect x="80" y="420" width="16" height="22"/><rect x="168" y="420" width="16" height="22"/><rect x="256" y="420" width="16" height="22"/><rect x="344" y="420" width="16" height="22"/><rect x="432" y="420" width="16" height="22"/><rect x="520" y="420" width="16" height="22"/><rect x="608" y="420" width="16" height="22"/><rect x="696" y="420" width="16" height="22"/><rect x="784" y="420" width="16" height="22"/><rect x="872" y="420" width="16" height="22"/><rect x="960" y="420" width="16" height="22"/><rect x="1048" y="420" width="16" height="22"/><rect x="80" y="490" width="16" height="22"/><rect x="168" y="490" width="16" height="22"/><rect x="256" y="490" width="16" height="22"/><rect x="344" y="490" width="16" height="22"/><rect x="432" y="490" width="16" height="22"/><rect x="520" y="490" width="16" height="22"/><rect x="608" y="490" width="16" height="22"/><rect x="696" y="490" width="16" height="22"/><rect x="784" y="490" width="16" height="22"/><rect x="872" y="490" width="16" height="22"/><rect x="960" y="490" width="16" height="22"/><rect x="1048" y="490" width="16" height="22"/><rect x="80" y="560" width="16" height="22"/><rect x="168" y="560" width="16" height="22"/><rect x="256" y="560" width="16" height="22"/><rect x="344" y="560" width="16" height="22"/><rect x="432" y="560" width="16" height="22"/><rect x="520" y="560" width="16" height="22"/><rect x="608" y="560" width="16" height="22"/><rect x="696" y="560" width="16" height="22"/><rect x="784" y="560" width="16" height="22"/><rect x="872" y="560" width="16" height="22"/><rect x="960" y="560" width="16" height="22"/><rect x="1048" y="560" width="16" height="22"/><rect x="80" y="630" width="16" height="22"/><rect x="168" y="630" width="16" height="22"/><rect x="256" y="630" width="16" height="22"/><rect x="344" y="630" width="16" height="22"/><rect x="432" y="630" width="16" height="22"/><rect x="520" y="630" width="16" height="22"/><rect x="608" y="630" width="16" height="22"/><rect x="696" y="630" width="16" height="22"/><rect x="784" y="630" width="16" height="22"/><rect x="872" y="630" width="16" height="22"/><rect x="960" y="630" width="16" height="22"/><rect x="1048" y="630" width="16" height="22"/><rect x="80" y="700" width="16" height="22"/><rect x="168" y="700" width="16" height="22"/><rect x="256" y="700" width="16" height="22"/><rect x="344" y="700" width="16" height="22"/><rect x="432" y="700" width="16" height="22"/><rect x="520" y="700" width="16" height="22"/><rect x="608" y="700" width="16" height="22"/><rect x="696" y="700" width="16" height="22"/><rect x="784" y="700" width="16" height="22"/><rect x="872" y="700" width="16" height="22"/><rect x="960" y="700" width="16" height="22"/><rect x="1048" y="700" width="16" height="22"/>
  </g>
  <circle cx="980" cy="180" r="58" fill="#fef3c7" opacity="0.9"/>
</svg>
